<?xml version="1.0" standalone="no"?><svg xmlns="http://www.w3.org/2000/svg" viewBox="0 0 1440 320"><path fill="#ffe4c4" fill-opacity="1" d="M0,96L34.3,106.7C68.6,117,137,139,206,128C274.3,117,343,75,411,96C480,117,549,203,617,197.3C685.7,192,754,96,823,69.3C891.4,43,960,85,1029,101.3C1097.1,117,1166,107,1234,101.3C1302.9,96,1371,96,1406,96L1440,96L1440,0L1405.7,0C1371.4,0,1303,0,1234,0C1165.7,0,1097,0,1029,0C960,0,891,0,823,0C754.3,0,686,0,617,0C548.6,0,480,0,411,0C342.9,0,274,0,206,0C137.1,0,69,0,34,0L0,0Z"></path></svg>